<svg xmlns="http://www.w3.org/2000/svg" viewBox="0 0 1527 1527"><style>path{fill:#799484}@media(prefers-color-scheme:dark){path{fill:#A9C0AB}}</style><g transform="translate(82 270)"><path d="M977.5 976.9C975.3 976.5 969.3 976.1 964.2 976.1C959.1 976 950.7 975.6 945.7 975C940.6 974.5 930.7 973.6 923.5 973C916.4 972.4 910.3 971.6 910 971.2C909.7 970.8 905.2 970.4 900 970.3C894.8 970.1 886.2 969.6 881 969.1C868.2 967.7 842.7 966.2 812.9 964.9C788.4 963.9 731.9 964.8 678 967.1C628.2 969.3 626.6 969.3 624.4 967.3C622.8 966 622.2 963.8 621.7 959.1C621.4 955.6 620.7 952.4 620.2 952.1C619.7 951.8 619.5 949.9 619.7 948C620.1 945.4 621 943.9 623.3 942.4C626.1 940.6 628.4 940.3 641 940.1C649 940 655.9 939.5 656.5 939.1C657 938.6 663.1 937.3 670 936C676.9 934.8 683.9 933.2 685.5 932.5C687.1 931.8 690.1 930.7 692.1 930.1C696 928.8 708.3 918.1 712.1 912.6C713.4 910.6 715.3 909 716.2 909C717.8 909 719.7 905.4 718.7 904.4C718.4 904.1 719 900.2 720 895.7C721.5 888.4 722.2 884.4 723.7 873.5C723.9 871.9 724.2 848.9 724.4 822.6C724.9 763.5 726 720 727.1 717.9C727.5 717.1 728.3 711.1 728.9 704.6C729.5 698.2 730.6 690.3 731.4 687.2C734.4 675.6 738 659.4 738 657.4C738 656.3 738.7 654.5 739.5 653.4C740.3 652.4 741 650.3 741 648.8C741 645.2 747.7 626.1 750.1 622.8C751.1 621.3 752 618.9 752 617.6C752 615 755.9 605.8 757.2 605.2C757.7 605 758 604.1 758 603.1C758 602.2 758.4 601 758.8 600.5C759.2 599.9 760.2 597.7 760.9 595.5C761.6 593.3 763.3 590.4 764.5 589C765.7 587.6 767 584.9 767.4 582.9C767.8 580.9 769.1 577.7 770.5 575.9C771.8 574 773.9 570.5 775 568C779 559.5 779.5 558.8 781.7 557.9C783.4 557.3 784 556.2 784 554.2C784 551.3 789.2 542.1 791.6 540.7C792.4 540.3 793 539.4 793 538.7C793 537.1 799.9 526.7 801.7 525.7C802.4 525.3 803.7 523.5 804.6 521.7C808.8 513.6 836 485 842.2 482.3C844.3 481.4 846 480.3 846 479.9C846 478.5 852.4 473 854.1 473C855 473 856 472.3 856.4 471.5C856.7 470.7 857.5 470 858.2 470C858.9 470 861.5 468.2 863.9 466C867.2 462.9 869.3 461.9 873 461.4C877.2 460.8 878 460.4 878.9 457.9C880 454.8 885.2 451.7 891.1 450.6C893.2 450.2 895.9 449.1 897.3 448C898.7 446.9 900.3 446 900.8 446C901.4 446 902 445.5 902.2 444.9C902.4 444.4 904.1 443.8 906 443.8C908 443.7 910 443 910.7 442C911.9 440.4 915.5 439 924 437.2C932.3 435.3 940.5 433 942.4 431.9C945.3 430.2 985.7 422.6 997.5 421.5C1001.4 421.1 1005.4 420.3 1006.5 419.6C1007.6 418.9 1009.9 418 1011.5 417.6C1017.5 416.2 1031.5 411.7 1032.4 410.8C1033 410.4 1034.6 410 1036.2 410C1037.7 410 1039.3 409.4 1039.7 408.6C1040.8 406.7 1044.5 405 1047.4 405C1048.8 405 1050.3 404.3 1050.7 403.5C1051.5 402.1 1065.4 393 1066.8 393C1067.2 393 1069.3 391.4 1071.5 389.5C1073.7 387.6 1076 386 1076.6 386C1077.1 386 1082.1 381.4 1087.6 375.9C1093 370.3 1098.6 365.4 1100 365C1101.8 364.5 1102.7 363.3 1103.5 360.4C1104.4 356.8 1111.3 346 1113.2 345.2C1113.7 345 1114 344.1 1114 343.1C1114 342.2 1115.6 339.1 1117.5 336.1C1119.4 333.2 1121 330.4 1121 329.8C1121 329.3 1122.6 325.3 1124.5 321C1126.4 316.6 1128.7 310.5 1129.6 307.3C1130.5 304.1 1131.9 301.1 1132.6 300.5C1133.4 300 1134.2 296.8 1134.5 293.5C1134.8 290.2 1135.5 285 1136 282C1136.5 279 1137.2 274.7 1137.6 272.5C1138 270.3 1138.6 268.1 1139 267.5C1140 266.2 1140.5 247.3 1140.4 222C1140.2 202.5 1138.3 182.5 1135.5 170.2C1134.7 166.7 1134 162.6 1134 161C1134 159.4 1133.6 157.9 1133.2 157.6C1132.7 157.3 1131.8 154.5 1131 151.3C1130.3 148.1 1128.9 143.7 1127.9 141.4C1126.8 139.2 1126 136.9 1126 136.3C1126 133.7 1110.2 104.5 1106.6 100.4C1094.3 86.5 1087.2 79.1 1085.5 78.5C1084.4 78.1 1081.8 76.4 1079.8 74.8C1077.8 73.2 1070.8 69.2 1064.3 65.8C1057.8 62.4 1052.3 59.4 1052 59.1C1051.4 58.3 1026.7 52.5 1017.9 51.1C1006 49.1 981.7 50.4 971.2 53.4C968.4 54.3 963.9 55.6 961.2 56.4C958.6 57.2 955.1 58.3 953.5 58.9C951.9 59.5 947.9 60.7 944.8 61.5C941.2 62.5 937.4 64.4 934.7 66.8C927.1 73.1 920 78 917.2 78.6C913.7 79.5 912 80.8 912 82.9C912 83.8 910.2 86.4 907.9 88.5C905.7 90.7 900.7 96.6 896.9 101.7C893 106.8 889.5 111.2 889 111.5C888.4 111.9 888 112.8 888 113.6C888 115.4 878 130.8 875.2 133.3C874.1 134.4 873.4 135.8 873.6 136.5C873.9 137.2 873.2 139.3 872.1 141.1C870.9 143 870 145.1 870 145.8C870 147.8 863.2 161.6 861.5 163C860.7 163.7 860 164.8 860 165.5C860 169.4 852.3 189.7 850.5 190.3C849.8 190.6 848.9 193 848.5 195.6C847.7 201.3 846.1 205 843.6 207.1C842.6 207.9 841.7 209.5 841.6 210.6C841.2 214.1 838.8 222 838.1 222C837.7 222 836.8 224.1 836.2 226.7C835.2 231.2 833.2 236.4 831.1 240C830.6 240.8 829.7 243.3 829 245.5C828.3 247.7 827.2 250.8 826.4 252.5C825.7 254.2 824 258.4 822.6 261.9C821.2 265.4 819.2 268.9 818.2 269.6C817 270.4 816.1 272.6 815.7 275.8C815.4 278.4 813.8 283.5 812.1 287.1C810.5 290.6 808.6 295.4 808 297.6C807.5 299.9 806.3 302.3 805.5 303C804.7 303.7 804 305.3 804 306.6C804 307.9 803.1 310.9 802.1 313.3C801 315.6 798.8 320.9 797.1 325C790.4 341.8 787.9 347.6 786.5 350.2C785.7 351.6 785 353.5 785 354.3C785 356.1 781.2 365 779.5 367C778.8 367.8 777.5 371.4 776.6 375C775.7 378.6 774.6 381.6 774 381.8C773.5 382 773 383 773 384.1C773 386.1 768.3 398.1 767.1 399C766.8 399.3 765.9 401.8 765.2 404.5C764.5 407.2 762.9 411.8 761.6 414.5C760.3 417.2 758.4 421.5 757.4 424C756.4 426.5 754.7 429.1 753.8 429.8C752.6 430.6 752 432.4 752 434.8C752 438.9 750.3 444.3 748 448C747.1 449.4 745.6 453.1 744.6 456.3C743.7 459.5 742.2 462.4 741.4 462.7C740.6 463 740 464.3 740 465.7C740 468.2 730.5 493.7 728.8 495.5C728.4 496 728 497 728 497.7C728 498.5 727.1 501 726 503.2C724.9 505.5 724 508 724 508.7C724 509.4 723.6 510 723.1 510C722.6 510 721.7 512.1 721 514.8C720.4 517.4 718.6 522.2 717.1 525.5C715.5 528.8 712.1 537.1 709.5 544C706.9 550.9 704.1 557.6 703.3 558.8C702.5 560.1 701.6 562.4 701.4 563.8C701.1 565.3 699.6 569.4 698 572.9C696.3 576.4 695 579.8 695 580.6C695 581.4 694.6 582 694.1 582C693.6 582 693 583.3 692.7 585C692.3 586.6 691.1 588.9 690 590C688.7 591.3 688 593.3 688 595.6C688 597.6 686.7 601.9 685.1 605.3C682.2 611.4 664.2 656.4 662.2 662.8C661.6 664.6 660.1 667.4 659 669C657.9 670.6 656.6 673.8 656.1 676.2C655 681.9 653.6 685.3 651.6 686.9C650.7 687.6 650 689.2 650 690.3C650 692.7 647 701.2 645.8 702C645.4 702.3 644.1 705.6 643 709.3C641.8 713.1 640 717 638.9 718.1C637.9 719.1 637 721.4 637 723.1C637 724.8 635.5 729.8 633.6 734.3C631.7 738.8 629.7 744 629 745.8C628.3 747.6 626.9 749.5 625.9 750.1C624.6 750.8 624 752.2 624 754.8C624 759 622.3 764.4 619.7 768.3C618.8 769.7 618 771.8 618 772.9C618 774 617.5 775.2 617 775.5C616.5 775.8 616 776.9 616 777.9C616 778.9 615.1 780.9 614 782.3C612.9 783.7 612 785.7 612 786.8C612 787.9 609.5 794.8 606.5 802.1C603.4 809.5 600 818.3 598.9 821.7C597.8 825.1 596.4 828.5 595.7 829.2C594.9 829.9 593.8 832.7 593.1 835.3C592.5 838 591 842.2 590 844.6C588.9 847 587.1 851 586 853.5C584.9 856 584 858.4 584 859C584 859.6 583.6 860.8 583.1 861.8C582.5 862.7 581.1 866.4 579.8 869.8C578.5 873.3 576.5 877.3 575.3 878.6C574.1 879.9 572.8 882.7 572.5 884.8C571.3 891.6 564.6 909 562.9 909.5C561.1 910.1 560 912.9 560 917.2C560 918.7 558.2 924 556 929C553.8 934 552 938.8 552 939.7C552 941.8 544.2 959.6 541.7 963.5C540.5 965.1 538.9 967.3 537.9 968.2C537 969.1 536 970.4 535.9 970.9C535.7 971.5 533 972.9 530 974C522.1 976.9 506.6 976.8 500.7 973.9C496.5 971.8 492.1 967.5 492 965.4C492 964.7 491.3 964 490.5 963.6C488.7 963 483.8 952.6 476.5 934.5C473.7 927.4 471.8 923.1 466.1 910.7C464.4 907 463 903.8 463 903.5C463 903.2 461.2 898.8 459 893.6C456.8 888.5 455 883.5 455 882.7C455 881.8 453.9 879.5 452.6 877.5C451.3 875.6 449.9 872.2 449.5 870C449.1 867.8 447.8 864.6 446.6 862.8C445.5 861 443.6 857.5 442.6 855C437.6 843.4 436.7 841.2 434.5 836.5C431.2 829.2 430.2 826.1 429.4 820.9C429 817.4 428.2 816 426.5 815.2C425.1 814.5 423.4 811.9 421.7 807.8C419.3 801.6 409 776.4 406.5 770.5C405.8 768.9 404.9 766.4 404.5 765C404.1 763.7 403.1 762 402.4 761.2C401.6 760.5 401 757.9 401 755.4C401 751.6 400.7 750.8 398.5 750C397.1 749.5 396 748.6 396 748.1C396 747.5 394.9 744.7 393.6 741.8C388.4 730.3 386.1 724.8 386.2 724.2C386.4 723.2 384.9 719.7 383.5 718C382.8 717.2 381.5 714.3 380.6 711.7C379.7 709.1 378.4 705.9 377.6 704.7C376.9 703.5 373.9 696.4 371 689C368 681.6 363.9 671.9 361.8 667.5C359.7 663 358 659 358 658.6C358 658.1 356.9 655.4 355.6 652.6C351.8 644.6 348.5 636.9 346.5 631.5C345.5 628.8 344.3 626 343.9 625.5C343.5 625 341.8 620.7 340 616C338.3 611.3 336.5 606.6 336 605.5C335.5 604.4 334.6 601.1 333.9 598.2C333.1 594.9 331.8 592.5 330.4 591.6C329.2 590.7 326.9 586.6 325 581.8C323.1 577.2 320.3 570.6 318.7 567C313.3 555.2 312 551.9 312 550.2C311.9 549.3 311.1 546.9 310 545C306.1 537.7 304.8 534.4 304.8 531.3C304.8 529.1 303.8 526.9 301.9 524.8C300.3 523 298.7 520.4 298.4 519C298 517.6 297.3 516 296.9 515.4C296.4 514.8 294.2 509.9 291.9 504.4C289.7 499 287.5 494.1 287 493.5C286.6 492.9 285.7 490.7 285 488.5C284.3 486.3 283.4 484.1 283 483.5C282.6 482.9 281 479.6 279.5 476C278 472.4 275.6 466.8 274 463.5C272.5 460.2 270.7 455.7 270 453.5C269.3 451.3 268.4 449.1 268 448.5C267.5 447.9 266 444.2 264.6 440.1C263.2 436.1 261.6 432.2 261.1 431.6C260 430.2 249.5 406.4 248.5 403C248.1 401.6 246.1 396.9 244 392.5C239.5 383 232.3 366.5 228.2 356C226.5 351.9 224.1 346 222.7 343C221.3 340 219.2 334.8 217.9 331.5C216.7 328.2 214.1 322.1 212.2 318C210.3 313.9 208.5 308.8 208.3 306.7C208 304.6 207 302.4 206.1 301.7C204.3 300.4 193.9 276.6 194 273.9C194 273 193.4 271.7 192.6 271C191.8 270.4 189.9 266.6 188.4 262.7C185.7 255.2 182.4 247.7 178.5 240C177.3 237.5 174 229.4 171.1 222C168.2 214.6 165 206.8 163.9 204.8C162.9 202.8 162 200.4 162 199.4C162 198.5 160 193.7 157.6 188.6C150.4 173.6 149.2 170.7 148.4 166.5C148.1 164.3 146.5 160.1 144.9 157.2C143.1 153.9 142 150.4 142 148C142 144.7 141.5 143.8 139.1 142.6C136.8 141.4 135.9 139.9 134.9 135.8C134.3 132.9 132.9 129.2 131.9 127.5C128.2 121.5 126 117.1 126 115.8C126 115.1 124.6 112.5 123 110.1C121.3 107.7 120 105.1 120 104.3C120 103.6 118.8 101.7 117.4 100.1C116 98.5 114.1 95.9 113.2 94.2C108.8 86.2 87.7 62.6 82.8 60.1C81.2 59.3 80 58.3 80 57.9C80 57.5 77.7 56 74.8 54.5C71.9 53 67.8 50.6 65.5 49.2C63.3 47.7 61.2 46.7 60.8 46.8C60.4 46.9 58.3 46.4 56.3 45.6C47.4 42.4 30.6 39.3 19.8 38.9C14.5 38.7 14 38.5 12.9 35.6C12.2 33.9 11.4 32.3 11.1 32C9.3 30.4 8.3 26.8 8.1 21.4L7.9 15.3L12.7 13.6C17.7 11.8 36.4 11.1 47.3 12.4C50.2 12.7 64.2 13.2 78.5 13.6C92.8 13.9 107.4 14.5 111 15C121.5 16.2 223.8 16.2 256.5 14.9C273 14.3 290.6 13.6 295.5 13.4C328.9 12.2 335.7 11.8 337.9 10.7C339.8 9.8 340.4 9.8 340.7 10.8C341 11.5 343 12 345.8 12C352.4 12 357.8 13.7 359.1 16.2C360.5 18.8 359.7 27.3 357.7 32.2C355.2 38.1 352.8 39.1 339.1 39.5C332.4 39.7 323.3 40.7 318.7 41.6C314.2 42.5 309.8 43.3 309 43.4C308.2 43.5 306.5 44.2 305.3 44.8C304.1 45.5 301.9 46 300.5 46C297.1 46 294 47.7 294 49.5C294 50.2 293.1 51.1 292.1 51.5C291 51.8 286.9 55.2 282.8 59C278.8 62.9 275.2 66 274.8 66C274.4 66 273.8 67.2 273.4 68.7C273.1 70.3 272.2 73.5 271.4 76C268.2 85.5 268.1 102 271 115.1C272.2 120.3 273.4 126.1 273.7 128C274 129.9 274.6 131.9 275.1 132.4C275.6 133 276 134.6 276 136.1C276 137.5 276.8 139.8 277.8 141.1C278.9 142.4 280.2 145.5 280.8 148C281.4 150.5 283.5 155.6 285.5 159.4C287.4 163.2 289 166.9 289 167.8C289 168.6 289.9 170.7 290.9 172.4C292 174.1 293.6 177.5 294.5 180C295.5 182.5 296.8 185.9 297.5 187.5C301.8 197.3 303 200.4 303 201.9C303 202.9 303.9 204.7 305 205.9C306 207.2 307.4 209.8 308 211.9C308.6 213.9 310.2 217.8 311.5 220.5C315.9 229.4 319.2 238.4 320.1 244C320.7 247 321.4 249.7 321.8 250C323.5 251.2 328 258.7 328 260.2C328 261.1 328.4 262.1 328.9 262.4C329.4 262.7 329.6 263.9 329.3 265C329 266.3 329.5 267.6 330.9 268.7C333.2 270.6 344 294.9 344 298.1C344 299.1 344.6 300.5 345.3 301.2C346 301.9 347.2 304.1 347.9 306C349.4 310.1 350.1 311.7 353.3 319C354.6 322 356.1 326.1 356.5 328C356.9 329.9 357.7 332.2 358.4 333C360.7 336.1 362 339.1 362 341.5C362 342.9 362.4 344 362.8 344C364.4 344 368.1 353.4 368.7 359.2C369.2 364.1 369.7 365.3 371.5 366C373 366.6 374.4 368.8 375.9 372.7C377.1 375.9 378.9 380.1 380 382C382.2 386.4 388.2 401.8 388.5 403.9C388.7 406.4 390.5 410.2 393.9 415.5C395.6 418.1 397.4 421.9 398 423.9C400 430.4 404 440.1 405.1 441C405.4 441.3 407.3 445.6 409.4 450.5C411.4 455.4 413.7 460.6 414.4 462C415.2 463.4 416.1 466.6 416.4 469.2C416.8 471.9 417.5 474 418 474C419 474 424.5 485.4 425.5 489.4C425.8 491.1 426.7 492.9 427.4 493.4C428.1 494 429.5 496.8 430.5 499.5C431.5 502.2 433.6 507.3 435.2 510.8C436.7 514.2 438 517.3 438 517.5C438 517.9 441.6 526.3 447.5 539.5C449.9 544.8 452 551.4 452 553.7C452 554.9 452.9 556.5 454 557.3C455 558 456.3 560.4 456.8 562.6C457.3 564.8 458.9 568.5 460.4 570.9C462.2 573.7 463.6 577.7 464.2 582.1C465.1 587.9 465.5 588.9 467.5 589.4C469.8 590 473 596.1 473 599.9C473 600.9 473.6 602 474.3 602.3C475.1 602.6 476.9 606.6 478.4 611.2C479.9 615.7 481.7 620.4 482.4 621.5C483.1 622.6 484.9 627.1 486.5 631.5C488 635.9 489.8 640.2 490.4 641C491.1 641.8 492.1 643.6 492.7 645C493.3 646.4 494.7 649.5 495.8 652C497 654.5 498.2 658.2 498.5 660.3C498.9 662.3 499.8 664.4 500.5 664.8C502.1 665.6 505.4 673.1 506.5 678C506.9 679.9 508.3 683.3 509.6 685.6C510.9 687.8 512 690.4 512 691.4C512 692.3 513.8 696.6 516 700.9C518.2 705.2 520.3 710.2 520.6 712.1C521 714 521.8 716.2 522.5 717C523.9 718.6 529 729.7 529 731.1C529 731.6 530.1 734.3 531.5 737.2C532.9 740 534 742.8 534 743.4C534 744 535.1 746.7 536.4 749.5C540 756.7 544.7 767 549.9 778.9C552.5 784.7 555 789.5 555.6 789.7C556.5 790 562 779.7 562 777.7C562 777.3 563.8 773.3 566 768.8C568.2 764.2 570 759.8 570 759C570 758.2 571.4 754.6 573 751.2C574.7 747.7 576 744.2 576 743.4C576 742.6 577.3 739.6 578.9 736.7C580.6 733.9 582.6 729.2 583.5 726.5C586.2 718.1 587.2 716 588.1 716.6C588.6 716.9 589 716 589 714.6C589 713.2 589.4 712 589.9 712C590.4 712 590.8 710.8 590.8 709.2C590.7 706.6 598.7 685.2 605 671C606.6 667.4 609.8 659.3 612.1 653C617.5 638.3 619.6 633.4 620.9 632.6C621.5 632.2 622 630.8 622 629.5C622 627.4 624.5 621.2 631.8 605C632.9 602.5 634.1 599.1 634.5 597.5C634.8 595.9 635.9 592.7 637 590.5C638 588.3 640 583.5 641.4 579.7C642.8 576 645.1 570.1 646.5 566.6C647.9 563 649 559.7 649 559.1C649 558.6 649.9 557.5 651 556.7C652.3 555.8 652.8 554.7 652.4 553.6C652.1 552.7 652.2 551.4 652.7 550.7C653.3 550.1 655 546.1 656.5 542C658.1 537.9 659.9 534 660.7 533.4C661.4 532.8 662 531.1 662 529.8C662 528.4 662.7 526.7 663.5 526C664.3 525.3 665 523.7 665 522.4C665 521.1 667.1 514.7 669.6 508.3C672.1 501.8 676 491.8 678.3 486C680.5 480.2 683.2 474.6 684.2 473.4C685.2 472.3 686 470.5 686 469.4C686 467.4 700.4 430.5 702 428.5C702.4 427.9 703 426 703.3 424.2C703.7 422.4 705.3 418.2 707 414.7C708.6 411.3 710.8 405.9 711.9 402.7C713 399.5 714.6 396.3 715.4 395.4C716.2 394.6 716.7 393.3 716.3 392.5C716 391.6 716.2 390.4 716.8 389.7C717.3 389.1 718.7 385.7 719.8 382.3C721 378.8 723.3 373.2 724.9 369.6C726.6 366.1 728 362.7 728 362.2C728 361.1 733.2 347.3 735.5 342.5C736.2 340.9 737.2 338.4 737.6 337C738 335.6 739.1 333.8 740 333C740.9 332.2 741.7 330.1 741.7 328.5C741.7 326.8 743.5 321.7 745.7 317C748 312.3 750 307.6 750.3 306.5C752 300.1 757.9 286 759.1 285C759.5 284.7 760.5 281.8 761.4 278.6C762.2 275.3 763.9 271.3 765 269.7C766.2 268.2 766.9 266.3 766.6 265.5C766.4 264.8 768.1 260.4 770.4 255.8C772.8 251.2 775 245.4 775.4 242.8C775.8 240.3 776.8 237.6 777.5 237C778.3 236.3 779 235.2 779 234.6C779 233.9 780.1 231 781.5 228.2C782.9 225.3 784 222.1 784 221C784 219.9 784.4 218.2 784.9 217.2C785.8 215.5 788.3 209.4 793.5 195.5C795 191.7 796.8 187.6 797.5 186.5C798.2 185.4 799.1 182.9 799.5 181C799.9 179.1 801.1 176 802.1 174.2C803.1 172.4 804 170.1 804 169.2C804 168.3 804.7 165.6 805.5 163.3C806.3 160.9 807.9 155.3 809.1 150.8C810.3 146.2 811.8 141.8 812.6 140.9C813.7 139.7 814 135.8 814 124.9C814 102.8 810.2 84.6 803.8 75.1C799.3 68.4 792.1 60.9 786.4 56.8C784 55.1 782 53.3 782 52.8C782 52.4 781.3 52 780.4 52C779.5 52 777.3 51.1 775.6 50.1C772.2 48 765.6 45.6 757.1 43.4C754.1 42.6 751.1 41.5 750.6 41.1C750 40.6 742.5 39.8 734 39.4C725.5 39 718.2 38.6 717.8 38.6C715.8 38.4 708.9 33.2 708.5 31.5C707.2 26.8 708.3 14.6 710 13.5C713.4 11.4 733.1 11.2 763.5 13C818.8 16.2 859.8 16.8 900 14.9C912.9 14.3 927.8 13.7 933 13.6C938.2 13.5 943.2 13.1 944 12.7C946.6 11.7 969.6 10.1 997.7 8.9C1025.7 7.8 1070.1 9.1 1072.7 11.2C1073.4 11.7 1076.3 12.4 1079.2 12.6C1095 14 1102.7 15.2 1105.8 17C1107.6 18.1 1110.3 19 1111.7 19C1116.2 19 1134.4 24.2 1136.5 26C1137.6 27 1140.6 28.1 1143.2 28.4C1145.8 28.8 1149 30 1150.3 31.1C1151.7 32.1 1153.5 33 1154.4 33C1155.3 33 1156 33.4 1156 33.9C1156 34.4 1157.5 35 1159.2 35.4C1165.2 36.6 1168 38.4 1168.8 41.5C1169.5 44.2 1170.1 44.5 1176.1 45.5C1183.4 46.7 1186.6 48.2 1187.4 50.8C1187.8 51.8 1189.7 53.2 1191.8 53.9C1198.4 56.3 1221.3 76.2 1223.6 81.7C1224.3 83.4 1226.5 85.8 1228.5 87C1230.4 88.2 1232 89.6 1232 90.1C1232 90.7 1233 92.1 1234.2 93.4C1238.7 97.9 1242 102.9 1242 105.4C1242 107 1243 108.6 1245 110C1247 111.4 1248 113 1248 114.6C1248 116 1250 120 1252.4 123.5C1254.8 127 1257.1 131.6 1257.5 133.7C1257.8 135.8 1259 138.4 1260 139.5C1261 140.6 1262.5 144 1263.3 147C1265.6 155.2 1268.3 167 1268.5 169.4C1268.5 170.6 1269.1 172.5 1269.8 173.7C1272.1 177.9 1274.1 201.9 1273.6 220.6C1273 246.9 1269.9 268.2 1266.5 270.2C1265.8 270.7 1264.9 273.8 1264.5 277.2C1264.1 280.7 1263 285.3 1262 287.5C1261 289.7 1259.8 292.9 1259.5 294.5C1258.6 298.5 1247.5 321.3 1245.8 322.8C1245 323.4 1243.3 326.2 1242 328.9C1240.5 332.2 1238.8 334.3 1237 335C1234.9 335.9 1234 337.1 1233.5 339.7C1232.6 344.4 1220.3 359.4 1206.5 372.8C1194.4 384.4 1176.8 398 1173.9 398C1171.1 398 1168 399.8 1168 401.4C1168 403 1147.3 415.1 1141.4 417C1139.3 417.7 1137.3 418.6 1137 419C1136.5 419.8 1124.6 425.5 1117.8 428.4C1113.5 430.1 1112.8 432 1116.5 432C1117.9 432 1121.6 432.7 1124.8 433.5C1127.9 434.3 1134.3 435.8 1139 436.9C1151.8 439.9 1165.1 443.8 1169 445.9C1170.9 446.9 1174 448.1 1175.9 448.5C1177.8 448.9 1180.8 450 1182.6 451C1184.3 452 1188.5 453.6 1191.9 454.6C1196.4 455.8 1198.6 457.1 1200.1 459.1C1201.7 461.4 1202.8 462 1205.8 461.9C1209.5 461.8 1215.9 464.4 1221.5 468.4C1223.2 469.6 1225.2 470.6 1226 470.8C1226.8 471 1229.5 472.7 1232.1 474.6C1234.7 476.5 1237.2 478 1237.6 478C1238.1 478 1239.8 479.1 1241.4 480.5C1243 481.9 1244.8 483 1245.4 483C1246 483 1248.5 484.9 1251 487.1C1253.5 489.4 1257.7 492.3 1260.4 493.6C1263.1 494.9 1266.4 497.3 1267.8 499C1269.2 500.6 1270.7 502 1271.3 502C1273.1 502 1300 530 1300 531.9C1300 532.9 1301.1 534.6 1302.5 535.6C1303.9 536.6 1305 537.9 1305 538.5C1305 539.1 1305.9 540.1 1307 540.7C1309 542 1316 552.3 1316 554.1C1316 554.6 1317.1 556.8 1318.5 558.8C1319.9 560.8 1321 563.7 1321 565.1C1321 566.6 1321.7 568 1322.5 568.4C1323.3 568.7 1324 569.6 1324 570.5C1324 571.3 1324.5 572 1325.1 572C1326.3 572 1331.5 583 1331.2 584.8C1331 585.6 1332 587.2 1333.3 588.5C1334.6 589.9 1336.2 593.4 1337 596.5C1337.7 599.5 1338.7 602 1339.2 602C1339.6 602 1340 602.6 1340 603.3C1340 604.1 1340.7 606.1 1341.6 607.9C1343.1 610.9 1345.8 620.8 1348 631C1348.5 633.5 1349.6 638.4 1350.4 642C1351.1 645.6 1352.3 652.5 1352.9 657.5C1354.5 669.7 1354.7 714.9 1353.3 728.5C1352 740 1348.1 760.3 1345.5 768C1344.7 770.5 1343 776.1 1341.6 780.5C1338.9 789.6 1336.1 796.8 1332 805.5C1330.5 808.8 1328 814.1 1326.5 817.4C1322.7 825.5 1310 846 1303.2 855C1297.8 862.1 1293.9 866.5 1284.2 876.8C1281.9 879.2 1280 881.6 1280 882C1280 883.1 1264.9 897.1 1254 906C1251 908.5 1248.3 910.7 1248 911C1246.7 912.4 1236.9 919 1236.1 919C1235.6 919 1234.7 919.7 1233.9 920.6C1233.2 921.4 1230.8 923.1 1228.6 924.2C1226.3 925.3 1224.3 926.6 1224 926.9C1222.5 929 1199.9 941.2 1194.4 943C1192.2 943.7 1189.8 944.8 1189 945.5C1186.8 947.5 1172.7 952.9 1163 955.6C1158.3 956.9 1153 958.7 1151.1 959.6C1149.1 960.6 1145.5 961.5 1143 961.8C1140.5 962.1 1137.6 962.9 1136.5 963.6C1135.4 964.2 1132 965.3 1129 966C1126 966.6 1119.5 968.1 1114.5 969.1C1097.9 972.7 1089.5 974 1081.5 974C1077 974 1073 974.4 1072.5 974.9C1069.9 977.4 988.2 979.2 977.5 976.9ZM1045 931.7C1050.6 930.5 1054.4 929.8 1067 927.6C1076.8 925.8 1098.6 918.9 1109.4 914C1122 908.4 1123.5 907.6 1126.7 905.2C1128.5 903.9 1130.6 903 1131.4 903.3C1132.3 903.7 1133.1 903.2 1133.5 902.2C1133.8 901.3 1136.9 898.6 1140.3 896.3C1143.8 893.9 1150.3 888.6 1154.7 884.5C1159.4 880.2 1163.7 877 1164.9 877C1166.3 877 1167.2 876.1 1167.6 874.3C1168 872.8 1170.9 868.3 1174 864.4C1177.2 860.4 1181.2 854.7 1182.9 851.7C1184.6 848.7 1186.7 845.7 1187.5 845C1188.3 844.3 1189 843.1 1189 842.4C1189 841.6 1191 836.8 1193.4 831.7C1202.8 811.9 1209.2 788.7 1213.6 758.8C1215.6 745.3 1216.7 690.8 1215.1 687.5C1214.5 686.4 1213.4 679.4 1212.5 672C1211.6 664.6 1210.3 656.2 1209.6 653.5C1208.8 650.8 1207.7 645.8 1207 642.5C1206.3 639.2 1204.2 631.5 1202.4 625.4C1200.5 619.3 1199 613.5 1199 612.5C1199 611.5 1198.4 609.9 1197.7 609.1C1197 608.2 1195.1 604.4 1193.5 600.5C1192 596.6 1189.4 590.8 1187.9 587.6C1186.3 584.3 1185 580.9 1185 580C1185 579 1183.6 576.5 1181.9 574.4C1180.2 572.2 1177.6 568.5 1176.2 566C1174.8 563.5 1172.1 559.7 1170.3 557.6C1168.5 555.4 1167 553.1 1167 552.5C1167 551.9 1165.8 550.2 1164.2 548.8C1162.7 547.4 1157.2 541.8 1151.9 536.4C1139.9 524.1 1136.7 521.3 1125.5 513.3C1120.5 509.8 1115.8 506.4 1114.9 505.7C1114.1 505 1111.4 503.5 1108.9 502.2C1106.5 501 1104 499 1103.5 497.7C1102.8 496.1 1101.2 495.2 1097.5 494.5C1094.7 493.9 1090 492.3 1087 490.8C1075.9 485.5 1068.3 483 1050 478.9C1047 478.2 1042.9 476.9 1041 475.9C1033.7 472.4 993.1 470.5 964 472.3C949.1 473.2 947.3 473.5 942.4 476.1C940.3 477.1 937.9 478 937 478C935.1 478 920.2 483.8 914 487C901.9 493.2 884.5 509 876.6 521C869.7 531.4 862.1 547 860.1 554.7C859.4 557 858.5 559.2 858 559.5C857.5 559.8 857.1 561.1 857.2 562.3C857.2 563.5 856.8 567.2 856.1 570.5C853.6 584.1 852.9 605 852.4 696C851.9 762.3 852.1 803.3 853 830C853.7 851.2 854.4 870.1 854.5 872C855.1 877.4 859.5 888.7 863.1 893.9C871 905.2 874.1 907.4 896.5 918.1C898.5 919.1 911.2 922.6 916 923.6C917.4 923.8 919.9 924.5 921.5 925C928.5 927.2 951.4 931.1 962.5 932.1C969.1 932.6 975 933.3 975.5 933.5C976 933.8 990.5 933.8 1007.5 933.6C1029.5 933.3 1040.4 932.8 1045 931.7Z"/></g></svg>